<svg id="Capa_1" data-name="Capa 1" xmlns="http://www.w3.org/2000/svg" viewBox="0 0 60.7 72"><defs><style>.cls-1{fill:#fff;}</style></defs><path class="cls-1" d="M54.61,72c-.2-.61-.39-1.22-.6-1.83-.68-1.94-1.35-3.89-2.06-5.82-1.63-4.46-3.44-8.84-5.47-13.13-1.6-3.39-3.32-6.71-5.23-9.94a84.15,84.15,0,0,0-6.47-9.54c-1-1.27-2.06-2.51-3.17-3.71a.48.48,0,0,1-.14-.35q0-13.72,0-27.45V0H37a.28.28,0,0,1,.27.15c1,1.66,2,3.35,2.85,5.08,2.39,4.59,4.47,9.32,6.42,14.12q2.61,6.42,4.85,13t4.17,13.1c.83,2.87,1.61,5.75,2.32,8.65q.75,3,1.37,6.09c.35,1.74.67,3.49.93,5.25.2,1.36.36,2.73.47,4.1,0,.4,0,.8.05,1.2l0,.16V72Z"/><path class="cls-1" d="M0,71a4.26,4.26,0,0,0,.06-.5c.06-1.2.18-2.39.33-3.59.24-1.94.57-3.87.94-5.79.47-2.41,1-4.8,1.59-7.19q1.44-5.81,3.19-11.54c.77-2.54,1.57-5.06,2.42-7.58q2.36-7,5.07-13.9c1.45-3.65,3-7.26,4.64-10.81,1.41-3,2.9-6,4.58-8.84L23.49.17l.1-.16h5.68V2.66q0,12.5,0,25a.55.55,0,0,1-.16.4,68.45,68.45,0,0,0-6.38,8.1,102.69,102.69,0,0,0-6.15,10.36c-2.12,4.08-4,8.26-5.74,12.52Q8.84,64,7.12,69c-.34,1-.66,2-1,3H0Z"/><path class="cls-1" d="M20,45h7.48c1-2.48,1.94-5,2.93-7.43.35.81.67,1.64,1,2.46s.65,1.65,1,2.48.65,1.65,1,2.48h7.48v0l-6.11,4.74,1.9,7.38,0,0h0l-6.15-4.43-6.18,4.45,0,0,1.9-7.4L20,45Z"/><path class="cls-1" d="M41.43,62.93l1.81-4.62h0l1.82,4.62h4.62l0,0-.14.12-3.48,2.7a.25.25,0,0,0-.11.33c.36,1.39.71,2.78,1.07,4.17a.66.66,0,0,1,0,.25l-3.84-2.77-3.84,2.76,0,0,1.18-4.59L36.78,63v0h4.64Z"/><path class="cls-1" d="M21.33,70.53l-3.84-2.77-3.84,2.77,0,0,1.19-4.6L11,63v0h4.64l1.82-4.66c.23.54.42,1,.62,1.56s.41,1,.61,1.55l.61,1.55H24l0,0-3.79,2.94,1.18,4.6Z"/></svg>